<?xml version="1.0" encoding="utf-8"?>
<!-- Generator: Adobe Illustrator 27.5.0, SVG Export Plug-In . SVG Version: 6.00 Build 0)  -->
<svg version="1.1" id="Layer_1" xmlns="http://www.w3.org/2000/svg" xmlns:xlink="http://www.w3.org/1999/xlink" x="0px" y="0px"
	 viewBox="0 0 3000 3000" style="enable-background:new 0 0 3000 3000;" xml:space="preserve">
<path style="fill:#099ED4;" d="M0,0h3000.002v3000.002h-240.147h-367.878h-141.958H1721.19H1277.6H748.586H612.378h-373.35H0V0z"/>
<path style="fill:#E84E09;" d="M1080.124,1631.937c31.151,43.295,70.105,83.566,112.878,115.67
	c18.155,13.626,37.374,25.008,56.493,37.14l-0.053,76.327l-0.012,67.755c9.642,2.625,18.396,7.163,27.809,10.315l-0.17,256.699
	l0.381,141.006l-249.809-149.156c-9.305-5.798-15.021-26.672-18.879-36.864l-35.153-96.419l-119.063-305.268l-0.372-2.769
	L1080.124,1631.937z"/>
<path style="fill:#032F62;" d="M1080.124,1631.937c31.151,43.295,70.105,83.566,112.878,115.67
	c18.155,13.626,37.374,25.008,56.493,37.14l-0.053,76.327l-0.012,67.755l-394.884-179.687l-0.372-2.769L1080.124,1631.937z"/>
<path style="fill:#E84E09;" d="M2528.87,2301.767c36.92,23.936,72.949,50.974,103.781,82.497
	c59.836,61.184,101.306,140.312,119.109,223.831c10.403,48.794,8.054,98.88,8.235,148.474l-0.141,243.434h-367.878l0.231-372.199
	l-0.144-73.746c-0.021-5.997-1.676-17.76-0.088-23.268c0.961-3.325,4.954-8.455,6.779-11.554l15.439-26.069l86.057-144.425
	C2508.931,2332.385,2517.652,2316.573,2528.87,2301.767z"/>
<path style="fill:#FC8C05;" d="M2528.87,2301.767c36.92,23.936,72.949,50.974,103.781,82.497
	c59.836,61.184,101.306,140.312,119.109,223.831c10.403,48.794,8.054,98.88,8.235,148.474c-31.04-1.96-63.381,0.141-94.541,0.17
	c-34.321,0.032-67.391-1.749-97.236-20.663c-32.613-20.669-53.162-51.7-62.18-89.101c-3.393-14.08-3.009-28.239-3.032-42.636
	l-0.009-48.809l0.202-148.951c0-16.377,3.041-41.074-2.35-56.32l-0.598-1.518C2508.931,2332.385,2517.652,2316.573,2528.87,2301.767
	z"/>
<path style="fill:#E84E09;" d="M473.069,2295.954l17.13,36.05c8.98,14.071,16.392,29.01,24.595,43.532l54.313,97.096l28.061,49.772
	c4.922,8.725,11.244,18.188,14.388,27.659c2.552,7.685,0.826,21.51,0.841,29.768l-0.076,88.348l0.059,331.823h-373.35l0.734-243.088
	c0.098-56.774-1.034-111.363,13.261-166.887c23.783-92.382,72.565-177.498,144.544-240.686
	C420.958,2328.805,446.335,2311.821,473.069,2295.954z"/>
<path style="fill:#FC8C05;" d="M473.069,2295.954l17.13,36.05l-0.223,1.523c-3.407,25.605-0.976,53.88-0.97,79.893l0.097,161.145
	c0.02,25.951,2.534,55.122-3.475,80.399c-6.489,27.278-20.355,51.311-41.78,69.478c-12.738,10.805-27.176,20.098-43.213,25.166
	c-26.388,8.341-53.587,7.192-80.895,7.251l-79.978,0.056c0.098-56.774-1.034-111.363,13.261-166.887
	c23.783-92.382,72.565-177.498,144.544-240.686C420.958,2328.805,446.335,2311.821,473.069,2295.954z"/>
<path style="fill:#E84E09;" d="M1920.769,1631.371c21.196,9.847,41.566,22.465,61.761,34.233l65.341,37.175l66.647,37.204
	c4.014,2.405,12.829,6.601,15.741,10.069c0.829,0.99,0.905,2.417,1.359,3.627l-102.267,306.038l-27.642,86.464
	c-1.963,5.739-4.157,16.178-7.348,20.947c-4.858,7.274-22.535,15.495-30.24,20.534l-235.389,143.001
	c-2.481,1.348-4.887,2.78-7.535,3.765l-0.205-140.007l-164.596-0.161l-1.535-2.487l-2.127,2.566l-72.167,0.853
	c-11.033,0.179-23.909,1.714-34.772,0.182l-168.727,0.469l0.17-256.699c-9.413-3.152-18.167-7.69-27.809-10.315l0.012-67.755
	l0.053-76.327c112.175,67.172,250.137,82.108,375.75,50.068c28.348-7.23,56.561-17.78,83.329-29.549
	c10.362-4.553,20.736-11.066,31.257-14.818c28.649-16.134,56.189-33.102,81.882-53.766
	C1859.591,1706.213,1891.414,1669.935,1920.769,1631.371z"/>
<path style="fill:#06DED6;" d="M1554.218,1973.006c39.152-2.845,78.053-9.36,116.438-17.493l49.072-11.353l1.852,2.323
	l-0.586,247.94l-164.596-0.161l-1.535-2.487L1554.218,1973.006z"/>
<path style="fill:#032F62;" d="M1920.769,1631.371c21.196,9.847,41.566,22.465,61.761,34.233l65.341,37.175l66.647,37.204
	c4.014,2.405,12.829,6.601,15.741,10.069c0.829,0.99,0.905,2.417,1.359,3.627c-10.318,2.54-20.663,8.945-30.146,13.778
	l-51.753,26.089l-195.935,93.607l-113.921,53.197l0.305-68.622l-0.337-81.281c28.649-16.134,56.189-33.102,81.882-53.766
	C1859.591,1706.213,1891.414,1669.935,1920.769,1631.371z"/>
<path style="fill:#EAAF6A;" d="M1249.495,1784.746c112.175,67.172,250.137,82.108,375.75,50.068
	c28.348-7.23,56.561-17.78,83.329-29.549c10.362-4.553,20.736-11.066,31.257-14.818l0.337,81.281l-0.305,68.622
	c-5.707,2.71-11.848,6.7-18.284,6.132l-1.852-2.323l-49.072,11.353c-38.385,8.133-77.285,14.648-116.438,17.493l0.645,218.769
	l-2.127,2.566l-72.167,0.853c-11.033,0.179-23.909,1.714-34.772,0.182l-168.727,0.469l0.17-256.699
	c-9.413-3.152-18.167-7.69-27.809-10.315l0.012-67.755L1249.495,1784.746z"/>
<path style="fill:#FECE93;" d="M1249.443,1861.074c29.449,14.616,55.942,30.155,87.404,40.735
	c52.072,17.505,106.506,22.702,161.194,23.016c61.33,0.349,117.888-4.711,176.397-24.337l65.731-28.758l-0.305,68.622
	c-5.707,2.71-11.848,6.7-18.284,6.132l-1.852-2.323l-49.072,11.353c-38.385,8.133-77.285,14.648-116.438,17.493l-108.229-0.085
	c-57.516-7.046-113.314-16.635-168.75-33.776c-9.413-3.152-18.167-7.69-27.809-10.315L1249.443,1861.074z"/>
<path style="fill:#06DED6;" d="M1277.239,1939.144c55.436,17.142,111.234,26.731,168.75,33.776l108.229,0.085l0.645,218.769
	l-2.127,2.566l-72.167,0.853c-11.033,0.179-23.909,1.714-34.772,0.182l-168.727,0.469L1277.239,1939.144z"/>
<path style="fill:#032F62;" d="M1445.989,1972.921l108.229,0.085l0.645,218.769l-2.127,2.566l-72.167,0.853
	c-11.033,0.179-23.909,1.714-34.772,0.182L1445.989,1972.921z"/>
<path style="fill:#032F62;" d="M1554.863,2191.774l1.535,2.487l164.596,0.161l0.205,140.007l-0.009,665.573H1277.6l-0.149-663.153
	l-0.381-141.006l168.727-0.469c10.863,1.532,23.739-0.003,34.772-0.182l72.167-0.853L1554.863,2191.774z"/>
<path style="fill:#FC8C05;" d="M973.609,2054.41l35.153,96.419c3.858,10.192,9.574,31.066,18.879,36.864l249.809,149.156
	l0.149,663.153H748.586H612.378l-0.059-331.823l0.076-88.348c-0.015-8.259,1.711-22.084-0.841-29.768
	c-3.144-9.472-9.466-18.935-14.388-27.659l-28.061-49.772l-54.313-97.096c-8.203-14.522-15.615-29.461-24.595-43.532l-17.13-36.05
	c24.413-15.445,53.086-26.76,79.219-39.305l195.867-92.06c22.192-6.586,45.015-21.199,65.947-31.473l97.26-47.13L973.609,2054.41z"
	/>
<path style="fill:#032F62;" d="M473.069,2295.954c24.413-15.445,53.086-26.76,79.219-39.305l195.867-92.06l0.431,835.413H612.378
	l-0.059-331.823l0.076-88.348c-0.015-8.259,1.711-22.084-0.841-29.768c-3.144-9.472-9.466-18.935-14.388-27.659l-28.061-49.772
	l-54.313-97.096c-8.203-14.522-15.615-29.461-24.595-43.532L473.069,2295.954z"/>
<path style="fill:#FC8C05;" d="M2029.352,2059.719l161.552,74.013c18.527,8.347,39.697,20.619,59.139,25.814
	c24.759,9.061,48.583,23.502,72.021,35.537l113.772,57.703l63.19,32.49c9.741,5.127,21.1,9.979,29.845,16.491
	c-11.218,14.807-19.94,30.618-28.617,46.975l-86.057,144.425l-15.439,26.069c-1.825,3.1-5.818,8.229-6.779,11.554
	c-1.588,5.508,0.067,17.271,0.088,23.268l0.144,73.746l-0.231,372.199h-141.958H1721.19l0.009-665.573
	c2.648-0.984,5.054-2.417,7.535-3.765l235.389-143.001c7.705-5.039,25.383-13.26,30.24-20.534c3.19-4.77,5.385-15.208,7.348-20.947
	L2029.352,2059.719z"/>
<path style="fill:#032F62;" d="M1817.556,2568.82l255.454,0.053c11.388,0.009,62.127-2.44,69.111,0.958l-0.357,192.598
	l-324.068,0.249L1817.556,2568.82z"/>
<path style="fill:#032F62;" d="M2250.043,2159.545c24.759,9.061,48.583,23.502,72.021,35.537l113.772,57.703l63.19,32.49
	c9.741,5.127,21.1,9.979,29.845,16.491c-11.218,14.807-19.94,30.618-28.617,46.975l-86.057,144.425l-15.439,26.069
	c-1.825,3.1-5.818,8.229-6.779,11.554c-1.588,5.508,0.067,17.271,0.088,23.268l0.144,73.746l-0.231,372.199h-141.958
	L2250.043,2159.545z"/>
<path style="fill:#032F62;" d="M845.016,1047.423l0.161-143.218c-0.029-29.531-1.195-59.54,0.85-88.987
	c11.054-159.149,76.805-311.945,190.052-425.253c120.943-121.004,286.764-195.22,458.69-195.077
	c176.558,0.146,346.893,70.487,471.434,196.044c99.068,99.876,165.563,229.77,184.102,369.642
	c6.732,50.795,5.209,102.448,5.314,153.58l0.29,131.013l-0.425,6.683c43.225,29.461,74.039,72.018,83.897,123.943
	c3.173,16.717,3.235,32.979,3.19,49.91c-0.041,17.118,0.141,34.248-2.68,51.19c-4.225,25.392-15.668,51.533-30.279,72.648
	c-30.595,44.215-76.005,76.723-129.533,86.268l-9.817,1.43l-61.904-0.188l0.328-542.913l-214.717-0.246
	c-47.467,0.029-95.101,2.473-142.447-1.696c-138.724-12.208-268.849-74.892-376.076-161.59
	c-29.232-23.637-54.914-50.517-82.395-76.072c-7.896,27.856-16.122,54.917-30.507,80.306
	c-37.357,65.927-95.414,108.149-167.725,128.323c-2.927,12.445-0.56,29.886-0.525,42.932l0.12,101.397l0.381,428.206l-44.684,1.022
	c-5.531,0.05-13.386,1.28-18.366-1.324c-10.512-5.282-24.357-6.592-35.687-10.606c-39.87-14.127-76.014-41.203-102.097-74.37
	c-34.608-44.019-48.677-98.487-41.889-153.9C759.865,1132.929,795.305,1085.723,845.016,1047.423z"/>
<path style="fill:#FC8C05;" d="M2070.262,1437.239l-0.287-417.639c31.518,4.427,58.538,15.316,85.509,32.25
	c43.225,29.461,74.039,72.018,83.897,123.943c3.173,16.717,3.235,32.979,3.19,49.91c-0.041,17.118,0.141,34.248-2.68,51.19
	c-4.225,25.392-15.668,51.533-30.279,72.648c-30.595,44.215-76.005,76.723-129.533,86.268L2070.262,1437.239z"/>
<path style="fill:#FC8C05;" d="M845.016,1047.423c27.554-16.998,55.031-25.286,86.484-31.307l0.246,419.28
	c-10.512-5.282-24.357-6.592-35.687-10.606c-39.87-14.127-76.014-41.203-102.097-74.37c-34.608-44.019-48.677-98.487-41.889-153.9
	C759.865,1132.929,795.305,1085.723,845.016,1047.423z"/>
<path style="fill:#FECE93;" d="M994.797,1435.697l-0.381-428.206l-0.12-101.397c-0.035-13.046-2.402-30.486,0.525-42.932
	c72.311-20.174,130.368-62.396,167.725-128.323c14.385-25.389,22.611-52.45,30.507-80.306c27.48,25.556,53.162,52.436,82.395,76.072
	c107.227,86.698,237.352,149.382,376.076,161.59c47.347,4.169,94.98,1.725,142.447,1.696l214.717,0.246l-0.328,542.913
	c-12.02,67.254-46.793,139.529-87.589,194.32c-29.356,38.564-61.178,74.842-99.056,105.311
	c-25.693,20.663-53.232,37.632-81.882,53.766c-10.521,3.753-20.895,10.266-31.257,14.818
	c-26.768,11.768-54.981,22.318-83.329,29.549c-125.613,32.039-263.575,17.104-375.75-50.068
	c-19.119-12.132-38.338-23.514-56.493-37.14c-42.773-32.104-81.727-72.375-112.878-115.67
	C1039.873,1570.85,1007.951,1508.33,994.797,1435.697z"/>
<path style="fill:#FC8C05;" d="M1361.026,1545.367c14.42-0.765,21.39,8.373,32.282,16.181
	c57.059,40.89,138.601,42.905,198.826,8.449c10.181-5.824,27.097-23.403,37.834-24.513c4.72-0.49,10.614,1.222,14.247,4.289
	c4.588,3.873,6.214,8.903,6.492,14.681c-2.282,7.362-6.999,10.945-12.524,15.932c-43.09,33.105-88.79,51.82-143.736,51.475
	c-41.297-0.258-81.563-14.599-115.869-37.134c-9.454-6.208-19.078-12.486-26.889-20.751c-2.856-3.021-4.526-6.753-4.031-10.986
	C1348.683,1554.215,1354.314,1550.193,1361.026,1545.367z"/>
<path style="fill:#032F62;" d="M1231.785,943.984c32.438-1.931,63.431,4.626,93.829,15.533c11.115,3.987,24.182,8.722,33.182,16.652
	c6.026,5.311,9.27,12.624,9.234,20.657c-0.035,7.623-2.522,14.754-7.854,20.227c-4.184,4.295-16.002,11.361-22.351,10.494
	l-1.84-0.539c-11.411-3.067-20.9-8.812-31.79-13.087c-32.235-12.644-62.848-15.521-96.908-10.403
	c-13.611,3.645-26.722,6.917-39.577,12.97c-7.579,3.568-15.193,7.608-22.099,12.357c-8.32,5.722-17.584,14.751-27.935,15.99
	c-8.274,0.99-15.085-1.107-21.56-6.261c-5.628-4.479-10.022-10.778-10.688-18.076c-0.782-8.628,0.114-14.912,6.062-21.401
	c7.635-8.335,17.766-14.801,27.334-20.684C1153.123,957.329,1191.851,946.764,1231.785,943.984z"/>
<path style="fill:#032F62;" d="M1742.207,943.949c18.085-1.802,37.564-0.955,55.521,1.562c31.084,4.359,62.191,17.083,88.447,34.107
	c9.237,5.988,19.257,13.175,25.682,22.301c5.024,7.137,7.072,15.776,5.036,24.369c-1.74,7.359-7.717,13.482-14.265,16.922
	c-5.464,2.871-13.028,3.548-18.923,1.673c-9.19-2.927-18.996-13.444-27.234-18.832c-11.534-7.535-24.729-13.213-37.743-17.634
	c-39.92-13.236-85.236-10.231-124.31,4.427c-10.553,3.961-22.448,11.912-33.246,13.925c-6.533,1.222-14.168-1.699-19.474-5.323
	c-6.504-4.441-11.716-12.346-12.724-20.224c-0.888-6.955,0.214-13.617,4.518-19.236c6.964-9.102,17.224-12.976,27.354-17.332
	C1687.167,953.324,1713.743,946.923,1742.207,943.949z"/>
<path style="fill:#0A183D;" d="M1749.177,1096.164c15.173-1.137,29.704,1.503,43.031,9.161
	c19.523,11.224,31.395,28.521,37.005,50.229c4.711,18.234,0.993,38.587-8.994,54.495c-12.694,20.224-32.868,30.536-55.45,35.751
	c-16.459,1.685-34.664-2.83-48.519-11.903c-15.381-10.075-29.59-28.096-32.865-46.641c-3.788-21.457-0.018-42.943,12.806-60.809
	C1709.266,1108.234,1727.404,1099.469,1749.177,1096.164z"/>
<path style="fill:#0A183D;" d="M1227.941,1096.044c17.689-1.506,36.205,1.928,51.152,11.909
	c18.281,12.211,29.08,30.009,32.848,51.53c3.085,17.634-1.893,40.995-12.715,55.389c-13.169,17.52-32.144,26.725-53.499,29.845
	c-18.103,1.116-34.564-2.502-49.717-12.589c-16.359-10.893-28.72-28.816-32.523-48.173c-3.896-19.831,0.021-38.909,11.546-55.646
	C1187.951,1109.547,1205.983,1100.186,1227.941,1096.044z"/>
<path style="fill:#EAAF6A;" d="M1490.661,1181.195c15.706-1.286,32.979,1.327,46.283,10.277
	c11.523,7.746,21.729,23.124,24.024,36.832c1.359,8.124,0.724,17.065,0.756,25.33l-0.009,44.071l-0.064,49.336
	c-0.041,9.047,0.738,19.09-0.706,28.002c-1.433,8.839-5.273,17.013-10.679,24.111c-11.786,15.472-26.959,21.152-45.486,23.818
	l-5.988,0.05c-20.218-0.563-37.86-6.935-51.791-22.283c-5.801-6.393-10.761-14.514-12.469-23.054
	c-4.491-22.456-1.767-49.837-1.822-72.958c-0.053-21.697-1.755-45.044,0.226-66.568c1.523-16.567,7.547-30.879,20.675-41.634
	l1.714-1.377C1466.295,1186.205,1476.83,1182.689,1490.661,1181.195z"/>
</svg>
