<?xml version="1.0" encoding="UTF-8" standalone="no"?>
<!-- Created with Inkscape (http://www.inkscape.org/) -->

<svg
   version="1.1"
   id="svg981"
   xml:space="preserve"
   width="682.66669"
   height="682.66669"
   viewBox="0 0 682.66669 682.66669"
   xmlns="http://www.w3.org/2000/svg"
   xmlns:svg="http://www.w3.org/2000/svg"><defs
     id="defs985"><clipPath
       clipPathUnits="userSpaceOnUse"
       id="clipPath995"><path
         d="M 0,512 H 512 V 0 H 0 Z"
         id="path993" /></clipPath><clipPath
       clipPathUnits="userSpaceOnUse"
       id="clipPath1011"><path
         d="M 0,512 H 512 V 0 H 0 Z"
         id="path1009" /></clipPath></defs><g
     id="g987"
     transform="matrix(1.3333333,0,0,-1.3333333,0,682.66667)"><g
       id="g989"><g
         id="g991"
         clip-path="url(#clipPath995)"><g
           id="g997"
           transform="translate(386.7363,-92.8271)"><path
             d="M 0,0 C -38.187,132.799 -224.581,42.66 -224.581,-88.409 -142.709,-87.474 -61.914,-49.774 0,0"
             style="fill:#e2e2e2;fill-opacity:1;fill-rule:evenodd;stroke:none"
             id="path999" /></g><g
           id="g1001"
           transform="translate(162.1558,-181.2363)"><path
             d="M 0,0 C 0,131.069 186.394,221.208 224.581,88.409"
             style="fill:none;stroke:#000000;stroke-width:15;stroke-linecap:round;stroke-linejoin:round;stroke-miterlimit:10;stroke-dasharray:none;stroke-opacity:1"
             id="path1003" /></g></g></g><g
       id="g1005"><g
         id="g1007"
         clip-path="url(#clipPath1011)"><g
           id="g1013"
           transform="translate(8.5,379.7007)"><path
             d="m 0,0 v -53.897 c 0,-2.197 1.713,-3.624 3.826,-3.224 l 75.167,15.065 c 2.198,9.701 4.197,18.774 5.995,27.22 -2.797,0.77 3.911,19.059 1.114,19.857 -6.252,1.827 -8.394,7.048 -18.928,12.412 L 3.826,4.765 C 1.713,4.337 0,2.197 0,0"
             style="fill:#e2e2e2;fill-opacity:1;fill-rule:evenodd;stroke:none"
             id="path1015" /></g><g
           id="g1017"
           transform="translate(240.6265,120.4014)"><path
             d="M 0,0 -34.458,-38.861 0,-112.901 h 138.088 3.883 c 3.769,0 3.255,1.112 6.452,7.132 33.316,62.743 38.34,128.852 33.345,183.091 L 58.125,79.833 Z"
             style="fill:#fed1a3;fill-opacity:1;fill-rule:evenodd;stroke:none"
             id="path1019" /></g><g
           id="g1021"
           transform="translate(58.8594,197.7231)"><path
             d="m 0,0 c -4.996,-54.239 0.028,-120.348 33.344,-183.09 3.198,-6.02 2.684,-7.133 6.481,-7.133 h 3.883 138.059 v 112.901 c -8.65,0 -57.782,94.27 -66.175,93.1 z"
             style="fill:#fed1a3;fill-opacity:1;fill-rule:evenodd;stroke:none"
             id="path1023" /></g><g
           id="g1025"
           transform="translate(87.4932,337.6445)"><path
             d="m 0,0 c -3.454,-15.293 -7.394,-32.213 -11.819,-51.044 101.175,-73.014 215.198,-95.268 304.954,-23.824 l 16.958,58.119 -33.83,38.604 L 151.706,49.589 5.995,27.22 C 4.197,18.774 2.198,9.701 0,0"
             style="fill:#fed1a3;fill-opacity:1;fill-rule:evenodd;stroke:none"
             id="path1027" /></g><g
           id="g1029"
           transform="translate(92.6318,500.5054)"><path
             d="m 0,0 c 10.078,-19.23 14.103,-37.234 12.19,-65.139 27.635,-6.876 124.899,-38.233 134.377,-38.118 8.337,-0.115 110.511,32.069 137.175,38.832 -1.799,27.505 2.256,45.366 12.247,64.425 1.999,3.823 1.713,3.995 -0.656,3.995 H 147.995 0.657 C -1.684,3.995 -1.998,3.823 0,0"
             style="fill:#fed1a3;fill-opacity:1;fill-rule:evenodd;stroke:none"
             id="path1031" /></g><g
           id="g1033"
           transform="translate(41.7017,381.5552)"><path
             d="m 0,0 c 0,-19.145 4.796,-36.749 12.761,-50.53 l 33.031,6.619 c 2.198,9.701 4.196,18.774 5.995,27.22 -2.798,0.77 -5.567,1.569 -8.365,2.368 -5.795,1.683 -9.449,2.568 -9.449,8.674 V 15.579 L 0.343,8.845 C 0.114,5.963 0,2.996 0,0"
             style="fill:#cecece;fill-opacity:1;fill-rule:evenodd;stroke:none"
             id="path1035" /></g><g
           id="g1037"
           transform="translate(299.6934,501.4473)"><path
             d="m 0,0 c -8.936,-17.062 -15.959,-33.154 -12.133,-80.604 13.818,1.17 27.72,2.939 41.795,5.308 15.473,2.596 31.117,5.906 47.019,9.929 -1.799,27.505 2.256,45.366 12.247,64.425 1.999,3.823 1.713,3.995 -0.657,3.995 H 1.313 C 1.256,2.482 0.799,1.541 0,0"
             style="fill:#ffbc85;fill-opacity:1;fill-rule:evenodd;stroke:none"
             id="path1039" /></g><g
           id="g1041"
           transform="translate(300.4639,348.8003)"><path
             d="m 0,0 c 7.594,-32.184 15.045,-57.406 22.011,-85.853 15.702,3.025 31.232,6.905 46.562,11.67 -0.086,0.114 -0.171,0.228 -0.257,0.314 -8.307,10.756 -13.789,23.824 -15.273,38.061 C 51.33,-19.601 54.927,-3.31 63.292,10.7 42.138,5.792 21.069,2.254 0,0 m 67.517,-72.785 c 0.057,-0.086 0.114,-0.171 0.171,-0.257 -0.057,0.086 -0.114,0.171 -0.171,0.257"
             style="fill:#ffbc85;fill-opacity:1;fill-rule:evenodd;stroke:none"
             id="path1043" /></g><g
           id="g1045"
           transform="translate(334.4648,185.1689)"><path
             d="m 0,0 c 3.026,-51.729 -3.625,-112.559 -34.344,-170.536 -3.197,-6.02 -2.654,-7.133 -6.451,-7.133 h 85.045 3.883 c 3.768,0 3.255,1.113 6.452,7.133 C 87.9,-107.794 92.925,-41.685 87.93,12.554 53.386,13.924 24.238,8.845 0.029,0 Z"
             style="fill:#ffbc85;fill-opacity:1;fill-rule:evenodd;stroke:none"
             id="path1047" /></g><g
           id="g1049"
           transform="translate(68.4229,255.9858)"><path
             d="m 0,0 c -3.997,-16.891 -7.594,-36.635 -9.563,-58.263 85.245,3.396 137.574,-32.526 164.067,-67.05 5.167,-6.733 9.05,-10.271 17.7,-10.271 8.65,0 12.533,3.538 17.7,10.271 26.492,34.524 78.822,70.446 164.068,67.05 -1.628,17.862 -4.368,34.439 -7.509,49.218 -18.527,3.31 -34.715,13.439 -45.849,27.676 C 206.719,-10.5 105.001,-7.39 7.251,30.615 4.968,20.914 2.541,10.728 0,0"
             style="fill:#fd8087;fill-opacity:1;fill-rule:evenodd;stroke:none"
             id="path1051" /></g><g
           id="g1053"
           transform="translate(323.9023,256.9272)"><path
             d="m 0,0 c 4.824,-20.343 9.021,-44.824 10.592,-71.758 24.209,8.845 53.356,13.924 87.9,12.554 -1.628,17.861 -4.368,34.438 -7.509,49.218 C 87.13,19.602 67.06,21.742 45.135,17.69 29.805,12.925 14.274,9.045 -1.428,6.021 -0.942,4.023 -0.457,2.026 0,0 m 90.983,-9.986 z"
             style="fill:#fe636e;fill-opacity:1;fill-rule:evenodd;stroke:none"
             id="path1055" /></g><g
           id="g1057"
           transform="translate(363.7559,359.5)"><path
             d="m 0,0 c -6.766,-11.299 -10.677,-24.48 -10.677,-38.604 0,-17.461 5.966,-33.525 15.958,-46.279 11.134,-14.237 27.322,-24.366 45.849,-27.676 4.34,-0.799 8.821,-1.198 13.418,-1.198 41.538,0 75.196,33.639 75.196,75.153 0,41.514 -33.658,75.182 -75.196,75.182 -8.964,0 -17.586,-1.569 -25.551,-4.451 C 22.582,26.192 8.85,14.751 0,0"
             style="fill:#80d261;fill-opacity:1;fill-rule:evenodd;stroke:none"
             id="path1059" /></g><g
           id="g1061"
           transform="translate(75.6743,397.1338)"><path
             d="m 0,0 v -21.228 c 0,-6.105 3.654,-6.99 9.45,-8.673 2.797,-0.8 5.567,-1.599 8.364,-2.369 48.818,-13.41 97.293,-19.516 145.711,-18.917 41.424,-0.513 82.876,3.881 124.557,13.553 8.821,14.751 22.582,26.193 38.997,32.127 v 45.224 c 0,3.908 -0.029,6.505 -4.369,5.221 l -4.653,-1.341 C 312.233,41.971 306.466,40.401 300.7,38.946 284.798,34.923 269.154,31.614 253.681,29.017 223.105,23.881 193.244,21.57 163.525,21.913 133.834,21.57 103.973,23.881 73.398,29.017 58.838,31.442 44.107,34.524 29.148,38.233 22.496,39.917 15.787,41.686 9.021,43.597 L 4.368,44.938 C 0.028,46.222 0,43.625 0,39.717 Z"
             style="fill:#f8f2f0;fill-opacity:1;fill-rule:evenodd;stroke:none"
             id="path1063" /></g><g
           id="g1065"
           transform="translate(289.5586,401.043)"><path
             d="m 0,0 c 3.626,-19.745 7.28,-36.807 10.905,-52.243 21.07,2.255 42.138,5.793 63.292,10.7 1.627,2.739 3.454,5.364 5.424,7.875 5.396,6.848 12.02,12.811 19.442,17.376 4.225,2.739 9.392,5.164 14.131,6.876 v 45.224 c 0,3.908 -0.028,6.505 -4.368,5.221 l -4.653,-1.341 C 98.349,38.062 92.582,36.492 86.815,35.037 70.914,31.014 55.27,27.705 39.797,25.108 25.722,22.74 11.819,20.971 -1.998,19.801 -1.513,13.752 -0.856,7.161 0,0"
             style="fill:#e2e2e2;fill-opacity:1;fill-rule:evenodd;stroke:none"
             id="path1067" /></g><g
           id="g1069"
           transform="translate(413.9434,394.6802)"><path
             d="m 0,0 c 31.261,-9.102 54.128,-37.948 54.128,-72.158 0,-34.067 -22.667,-62.827 -53.757,-72.071 -2.311,-0.686 -4.653,-1.256 -7.051,-1.741 2.484,-0.714 5.025,-1.313 7.622,-1.769 4.34,-0.799 8.822,-1.198 13.418,-1.198 41.538,0 75.197,33.639 75.197,75.153 0,41.514 -33.659,75.182 -75.197,75.182 -4.91,0 -9.735,-0.485 -14.388,-1.37 0,0 0.028,0 0.028,-0.028"
             style="fill:#4fc122;fill-opacity:1;fill-rule:evenodd;stroke:none"
             id="path1071" /></g><g
           id="g1073"
           transform="translate(59.7158,119.9165)"><path
             d="m 0,0 c -6.281,52.014 0.257,100.404 8.707,136.069 10.649,44.91 19.013,80.261 25.065,108.879 M 355.17,127.024 c 12.732,-59.546 18.442,-148.88 -25.836,-232.308 -3.197,-6.02 -2.684,-7.133 -6.452,-7.133 H 318.999 180.911 42.851 38.968 c -3.797,0 -3.282,1.113 -6.48,7.133 -12.39,23.368 -20.869,47.193 -26.379,70.703 M 45.106,315.45 c 1.913,27.904 -2.112,45.908 -12.19,65.139 -1.998,3.823 -1.684,3.994 0.657,3.994 h 147.338 147.338 c 2.369,0 2.655,-0.171 0.656,-3.994 -9.963,-19.003 -13.988,-37.091 -12.247,-64.425"
             style="fill:none;stroke:#000000;stroke-width:15;stroke-linecap:round;stroke-linejoin:round;stroke-miterlimit:10;stroke-dasharray:none;stroke-opacity:1"
             id="path1075" /></g><g
           id="g1077"
           transform="translate(428.3037,396.0781)"><path
             d="m 0,0 c 41.538,0 75.196,-33.668 75.196,-75.182 0,-41.514 -33.658,-75.153 -75.196,-75.153 -41.538,0 -75.225,33.639 -75.225,75.153 C -75.225,-33.668 -41.538,0 0,0 Z"
             style="fill:none;stroke:#000000;stroke-width:15;stroke-linecap:round;stroke-linejoin:round;stroke-miterlimit:10;stroke-dasharray:none;stroke-opacity:1"
             id="path1079" /></g><g
           id="g1081"
           transform="translate(75.6172,286.6006)"><path
             d="M 0,0 C 97.778,-38.005 199.524,-41.115 293.42,-11.983"
             style="fill:none;stroke:#000000;stroke-width:15;stroke-linecap:round;stroke-linejoin:round;stroke-miterlimit:10;stroke-dasharray:none;stroke-opacity:1"
             id="path1083" /></g><g
           id="g1085"
           transform="translate(58.8594,197.7231)"><path
             d="m 0,0 c 85.245,3.396 137.575,-32.526 164.067,-67.05 5.167,-6.734 9.05,-10.272 17.7,-10.272 8.65,0 12.533,3.538 17.701,10.272 C 225.96,-32.526 278.289,3.396 363.535,0"
             style="fill:none;stroke:#000000;stroke-width:15;stroke-linecap:round;stroke-linejoin:round;stroke-miterlimit:10;stroke-dasharray:none;stroke-opacity:1"
             id="path1087" /></g><g
           id="g1089"
           transform="translate(210.1943,346.4038)"><path
             d="m 0,0 c 9.678,-0.428 19.355,-0.571 29.005,-0.457 41.424,-0.513 82.876,3.881 124.557,13.553 8.849,14.751 22.582,26.193 38.997,32.127 v 45.224 c 0,3.908 -0.029,6.505 -4.369,5.221 -1.57,-0.457 -3.111,-0.884 -4.653,-1.341 C 129.895,79.12 79.193,72.043 29.005,72.643 c -50.159,-0.6 -100.861,6.477 -154.504,21.684 -1.542,0.457 -3.083,0.884 -4.653,1.341 -4.34,1.284 -4.368,-1.313 -4.368,-5.221 V 29.502 c 0,-6.106 3.654,-6.99 9.45,-8.673 24.152,-7.048 48.189,-12.298 72.17,-15.808 6.195,-0.913 12.39,-1.711 18.585,-2.396"
             style="fill:none;stroke:#000000;stroke-width:15;stroke-linecap:round;stroke-linejoin:round;stroke-miterlimit:10;stroke-dasharray:none;stroke-opacity:1"
             id="path1091" /></g><g
           id="g1093"
           transform="translate(75.6743,397.1338)"><path
             d="m 0,0 -63.349,-12.668 c -2.112,-0.428 -3.825,-2.568 -3.825,-4.765 V -71.33 c 0,-2.197 1.713,-3.624 3.825,-3.224 l 75.168,15.065"
             style="fill:none;stroke:#000000;stroke-width:15;stroke-linecap:round;stroke-linejoin:round;stroke-miterlimit:10;stroke-dasharray:none;stroke-opacity:1"
             id="path1095" /></g><g
           id="g1097"
           transform="translate(240.6265,7.5)"><path
             d="M 0,0 V 112.901"
             style="fill:none;stroke:#000000;stroke-width:15;stroke-linecap:round;stroke-linejoin:round;stroke-miterlimit:10;stroke-dasharray:none;stroke-opacity:1"
             id="path1099" /></g><g
           id="g1101"
           transform="translate(239.1992,397.248)"><path
             d="M 0,0 V 21.798"
             style="fill:none;stroke:#000000;stroke-width:15;stroke-linecap:round;stroke-linejoin:round;stroke-miterlimit:10;stroke-dasharray:none;stroke-opacity:1"
             id="path1103" /></g><g
           id="g1105"
           transform="translate(149.0723,405.5225)"><path
             d="M 0,0 V 20.628"
             style="fill:none;stroke:#000000;stroke-width:15;stroke-linecap:round;stroke-linejoin:round;stroke-miterlimit:10;stroke-dasharray:none;stroke-opacity:1"
             id="path1107" /></g><g
           id="g1109"
           transform="translate(402.8096,311.709)"><path
             d="M 0,0 18.015,-11.213 50.987,29.616"
             style="fill:none;stroke:#000000;stroke-width:15;stroke-linecap:round;stroke-linejoin:round;stroke-miterlimit:10;stroke-dasharray:none;stroke-opacity:1"
             id="path1111" /></g><g
           id="g1113"
           transform="translate(329.3555,405.5225)"><path
             d="M 0,0 V 20.628"
             style="fill:none;stroke:#000000;stroke-width:15;stroke-linecap:round;stroke-linejoin:round;stroke-miterlimit:10;stroke-dasharray:none;stroke-opacity:1"
             id="path1115" /></g><g
           id="g1117"
           transform="translate(239.1992,299.4687)"><path
             d="M 0,0 V 9.529"
             style="fill:none;stroke:#000000;stroke-width:15;stroke-linecap:round;stroke-linejoin:round;stroke-miterlimit:10;stroke-dasharray:none;stroke-opacity:1"
             id="path1119" /></g></g></g></g></svg>
