<?xml version="1.0" encoding="utf-8"?>
<!-- Generator: Adobe Illustrator 27.5.0, SVG Export Plug-In . SVG Version: 6.00 Build 0)  -->
<svg version="1.1" id="Layer_1" xmlns="http://www.w3.org/2000/svg" xmlns:xlink="http://www.w3.org/1999/xlink" x="0px" y="0px"
	 viewBox="0 0 2500 2500" style="enable-background:new 0 0 2500 2500;" xml:space="preserve">
<g>
	<path style="fill:#DB4C65;" d="M548.81,564.801c32.576-2.138,65.695-0.027,98.338-0.016l1258.257-0.025
		c20.138-0.099,40.881-1.511,60.891,0.877c64.206,7.664,117.655,64.865,118.792,130.001c1.453,83.427-0.025,167.161-0.025,250.617
		l0.079,819.282c0.008,16.353,0.755,33.099-1.623,49.311c-9.737,66.352-65.779,119.988-133.754,120.826
		c-33.295,1.075-67.004,0.008-100.336,0.008l-1249.499,0.017c-21.724,0.004-44.369,1.137-65.921-1.648
		c-54.204-7.002-105.487-52.71-116.118-106.927c-6.227-31.755-2.526-83.987-2.53-116.962l-0.021-964.575
		C415.206,656.24,436.605,568.033,548.81,564.801z M596.829,897.784c-0.581,20.038-0.009,40.134-0.002,60.185l-0.006,117.834
		c-0.003,24.757-4.754,161.508,2.677,174.723c-6.146,21.453-3.886,173.075,0,183.933c-7.231,13.024-2.673,71.175-2.672,88.138
		l-0.003,250.024c0.007,32.049-7.94,66.829,19.057,90.155c3.569,2.536,10.965,12.754,11.023,12.779
		c3.324,1.49,8.276-0.365,11.347,1.743l1311.556,0.585c64.991,0.328,77.11-52.565,77.044-103.527l-0.058-876.57
		c-16.871-0.702-34-0.013-50.909-0.013L596.829,897.784z M620.926,622.962c3.366,8.222-2.208,10.949-7.018,17.407
		c-29.4,39.453-11.213,146.592-17.079,199.36h1429.963l0.05-82.663c0.095-94.301,2.279-134.112-111.567-134.124l-1186.795,0.025
		C692.728,622.97,656.64,624.095,620.926,622.962z M475.268,897.784l0.004,812.231c-0.075,80.281-16.558,167.273,97.18,167.315
		l36.576-0.033c9.733-0.162,19.499-0.511,29.223,0c-3.071-2.109-8.023-0.253-11.347-1.743c-0.058-0.025-7.454-10.243-11.023-12.779
		c-26.997-23.325-19.05-58.105-19.057-90.155l0.003-250.024c-0.001-16.963-4.559-75.114,2.672-88.138
		c-3.886-10.857-6.146-162.479,0-183.933c-7.43-13.215-2.68-149.966-2.677-174.723l0.006-117.834
		c-0.008-20.051-0.579-40.147,0.002-60.185H475.268z"/>
	<path style="fill:#DEECF0;" d="M475.268,839.728l-0.104-127.774c0.238-68.502,35.249-89.109,99.376-89.109l46.387,0.116
		c3.366,8.222-2.208,10.949-7.018,17.407c-29.4,39.453-11.213,146.592-17.079,199.36H475.268z"/>
	<path style="fill:#DEECF0;" d="M475.268,897.784h121.561c-0.581,20.038-0.009,40.134-0.002,60.185l-0.006,117.834
		c-0.003,24.757-4.754,161.508,2.677,174.723c-6.146,21.453-3.886,173.075,0,183.933c-7.231,13.024-2.673,71.175-2.672,88.138
		l-0.003,250.024c0.007,32.049-7.94,66.829,19.057,90.155c3.569,2.536,10.965,12.754,11.023,12.779
		c3.324,1.49,8.276-0.365,11.347,1.743c-9.724-0.511-19.49-0.162-29.223,0l-36.576,0.033
		c-113.739-0.042-97.255-87.034-97.18-167.315L475.268,897.784z M615.879,1862.774c-6.159,2.988-9.239,9.148-16.724,12.107
		l-0.178,0.847l2.222-0.519l-0.324,0.822c2.768,0.249,5.5,0.37,8.153,1.266c9.733-0.162,19.499-0.511,29.223,0
		c-3.071-2.109-8.023-0.253-11.347-1.743C626.845,1875.528,619.449,1865.31,615.879,1862.774z"/>
	<path style="fill:#DB4C65;" d="M738.822,703.782c14.555-0.618,32.41-2.947,44.065,7.699c12.078,11.036,13.721,30.734,1.992,42.728
		c-11.26,11.517-37.403,7.238-51.78,7.217l-69.175-0.116c-13.576,0.253-34.714,3.275-45.575-6.392
		c-16.448-14.643-11.845-44.696,11.052-49.863c12.995-2.93,28.53-1.345,41.886-1.328L738.822,703.782z"/>
	<path style="fill:#DB4C65;" d="M956.942,703.782c22.748,0.133,74.491-7.911,92.209,8.624c16.058,14.987,8.575,42.355-12.169,47.659
		c-15.099,3.864-49.718,1.34-66.967,1.245c-17.677-0.124-64.227,2.756-78.413-1.038c-20.387-5.449-27.915-32.85-12.389-47.817
		C893.154,699.018,937.817,703.662,956.942,703.782z"/>
	<path style="fill:#565996;" d="M933.272,1305.419l220.207-0.116c9.11-0.083,18.656-0.826,27.691,0.116
		c-19.104,33.751-11.053,36.453-18.639,57.674c-22.483-1.756-53.743-0.046-77.085-0.029l-152.174,0.029l-1.702-1.199
		C933.011,1343.013,933.201,1324.336,933.272,1305.419z"/>
	<path style="fill:#565996;" d="M1307.442,1305.419c81.671,4.171,177.886,0.826,260.196,0c0.05,19.108,0.946,38.607,0,57.674
		h-231.982C1326.708,1342.88,1318.644,1324.606,1307.442,1305.419z"/>
	<path style="fill:#565996;" d="M1802.795,1190.474c58.068-0.564,103.237,36.93,103.743,96.916l-0.062,65.381
		c0.029,23.155,2.81,49.294-3.246,71.694c-11.057,40.935-50.008,70.465-92.35,70.05c-1.133-13.41-1.552-42.616,0-55.42
		c-0.901-21.445-0.042-43.168-0.025-64.646l0.025-127.135C1811.158,1226.723,1809.116,1210.121,1802.795,1190.474z
		 M1810.88,1247.313l-0.025,127.135c-0.017,21.478-0.876,43.201,0.025,64.646c15.871-2.183,32.917-9.55,36.806-26.841
		c3.773-16.755,3.395-108.939,1.212-128.67C1846.395,1260.98,1832.923,1251.642,1810.88,1247.313z"/>
	<path style="fill:#565996;" d="M1463.978,1020.727c105.939-7.595,146.04,148.123,46.443,193.553
		c-60.911,27.783-113.127-6.279-139.171-62.741c-26.558-0.789-53.378-0.042-79.962-0.033l-159.151,0.033
		c-13.775,41.147-47.173,66.572-90.478,71.063c-78.895,1.781-129.75-71.939-96.522-143.894c39.159-84.797,156.034-72.947,187,14.676
		h239.112C1385.785,1051.095,1418.785,1024.873,1463.978,1020.727z"/>
	<path style="fill:#8AF4DF;" d="M1463.978,1080.671c53.706-4.225,64.045,72.985,10.355,84.963
		C1417.585,1166.949,1407.516,1092.529,1463.978,1080.671z"/>
	<path style="fill:#8AF4DF;" d="M1034.064,1080.671c44.75-7.94,65.962,68.481,7.595,84.963
		C983.044,1171.228,974.415,1087.403,1034.064,1080.671z"/>
	<path style="fill:#2CC1B7;" d="M1567.638,1305.419c0.091-32.568-4.279-78.625,5.931-109.176
		c35.565-106.387,176.429-113.31,229.226-5.769c6.321,19.648,8.363,36.25,8.085,56.84l-0.025,127.135
		c-0.017,21.478-0.876,43.201,0.025,64.646c-1.552,12.804-1.133,42.01,0,55.42c-10.48,21.308-17.178,41.981-33.958,59.653
		c-45.355,47.754-124.914,53.582-173.171,6.989c-50.373-48.63-34.963-131.75-36.113-198.065
		C1568.584,1344.026,1567.688,1324.527,1567.638,1305.419z"/>
	<path style="fill:#8AF4DF;" d="M1680.865,1171.033c80.426-7.927,73.69,76.496,73.707,127.716l0.058,142.097
		c0.037,44.625-2.2,80.688-52.839,94.745c-69.976,14.746-76.479-45.712-76.521-93.458l-0.008-161.774
		C1625.291,1233.177,1619.825,1181.899,1680.865,1171.033z"/>
	<path style="fill:#2CC1B7;" d="M701.909,1197.417c33.987-102.623,172.739-115.447,221.336-15.066
		c12.09,24.965,10.372,48.564,10.098,75.383l-0.07,47.684c-0.071,18.917-0.262,37.594-1.702,56.474l1.702,1.199l-1.498,0.838
		c-1.39,61.654,18.664,149.385-31.418,197.509c-69.781,67.058-189.133,25.608-199.567-60.052c-0.278-2.291-0.071-5.616-2.461-6.873
		c-45.6,0.747-82.032-13.522-98.83-60.056c-3.886-10.857-6.146-162.479,0-183.933
		C617.93,1209.927,658.367,1190.515,701.909,1197.417z M599.497,1250.526c-6.146,21.453-3.886,173.075,0,183.933
		c16.797,46.534,53.229,60.803,98.83,60.056c2.117-6.392-0.461-45.127,0-55.42v-188.569c-0.249-17.942-0.735-35.544,3.582-53.108
		C658.367,1190.515,617.93,1209.927,599.497,1250.526z"/>
	<path style="fill:#565996;" d="M599.497,1250.526c18.432-40.599,58.87-60.01,102.411-53.108
		c-4.316,17.564-3.831,35.166-3.582,53.108v188.569c-0.461,10.293,2.117,49.029,0,55.42c-45.6,0.747-82.032-13.522-98.83-60.056
		C595.611,1423.601,593.351,1271.979,599.497,1250.526z M698.327,1439.094v-188.569c-16.946-0.116-40.47,4.611-45.015,24.122
		c-4.238,18.208-1.984,102.656-0.942,124.947C653.851,1431.271,667.116,1439.368,698.327,1439.094z"/>
	<path style="fill:#8AF4DF;" d="M809.188,1171.033c69.2-6.794,69.013,56.781,69.038,102.502l-0.004,161.753
		c-0.033,45.343,1.511,95.451-54.785,104.511c-66.502,7.002-69.901-55.204-69.934-100.319v-160.848
		C753.527,1232.696,748.725,1179.903,809.188,1171.033z"/>
	<path style="fill:#2CC1B7;" d="M1181.171,1305.419c19.918-10.845,23.167-21.433,49.112-26.293
		c40.641-7.62,50.788,9.002,77.16,26.293c11.202,19.187,19.266,37.461,28.214,57.674c19.793,36.768,36.602,74.865,55.349,112.156
		l37.976,76.18c35.581,73.167,41.259,106.652-16.452,172.552v49.572c23.097-0.05,66.821-2.482,88.08,1.859
		c21.582,4.408,31.431,29.177,16.153,45.6c-15.51,16.676-56.806,9.621-77.409,9.616c-76.799-0.017-83.46,5.728-82.788-81.576
		c-58.761,11.837-115.397,29.812-175.395,36.814c-5.674,20.615-15.294,37.183-37.818,42.678
		c-18.295,4.462-104.382,3.063-124.595-0.602c-56.499-10.239-40.192-98.011-40.217-140.735
		c-0.071-117.257,5.18-113.542,110.753-113.243c41.591,0.116,83.178-3.059,91.877,48.037c31.091-6.919,62.671-11.281,93.558-19.233
		c-31.485-66.319-64.385-132.049-96.779-197.928c-6.524-13.265-11.397-34.49-15.419-41.749
		C1170.118,1341.871,1162.066,1339.17,1181.171,1305.419z M1236.956,1333.994c-35.415,15.249-6.259,52.104,4.628,74.657
		l70.677,144.4c9.513,19.254,24.736,44.538,32.053,63.443c13.414,34.643-31.493,35.183-54.681,40.533
		c-36.071,8.322-71.914,16.224-108.462,22.196v48.784c10.272-1.32,20.64-2.42,30.871-4.026
		c27.795-4.08,126.574-24.014,151.394-35.918c24.467-11.729,39.325-39.25,35.328-66.078
		c-3.769-25.276-70.254-148.028-83.946-176.035C1297.838,1411.22,1277.161,1330.014,1236.956,1333.994z M1034.064,1628.975
		c-1,16.116-0.062,32.527-0.033,48.688l0.033,95.891h92.159c0.996-16.88,0.1-34.22,0.046-51.137l-0.046-93.442
		C1095.664,1628.946,1064.536,1627.294,1034.064,1628.975z"/>
</g>
</svg>
