<svg id="Layer_1" enable-background="new 0 0 468 468" height="512" viewBox="0 0 468 468" width="512" xmlns="http://www.w3.org/2000/svg"><g><g><g><g><g><path d="m289.646 266.51v170.11h-39.614l-15.197-120.897v-49.213z" fill="#fdd2b5"/><path d="m272.646 266.51h17v170.11h-17z" fill="#f9b995"/></g><g><path d="m250.032 436.62h39.613v26.56h-39.613z" fill="#99695c" transform="matrix(-1 0 0 -1 539.677 899.8)"/><path d="m274.258 436.62h15.387v26.56h-15.387z" fill="#895b52"/></g></g><g><g><path d="m180.05 266.51v170.11h39.613l15.172-120.897v-49.213z" fill="#fdd2b5"/><path d="m180.05 266.51h17v170.11h-17z" fill="#f9b995"/></g><g><path d="m180.05 436.62h39.613v26.56h-39.613z" fill="#99695c"/><path d="m180.05 436.62h15.387v26.56h-15.387z" fill="#895b52"/></g></g></g><g><g><g><path d="m119.445 309.979-4.973-4.17c-4.24-3.556-4.793-9.873-1.235-14.11l22.037-26.247c3.558-4.237 9.879-4.79 14.119-1.234l4.973 4.17c4.24 3.555 4.793 9.873 1.235 14.11l-22.037 26.247c-3.558 4.236-9.879 4.789-14.119 1.234z" fill="#ed4848"/><path d="m113.237 291.698c-3.558 4.237-3.005 10.555 1.235 14.11l4.973 4.17c4.24 3.555 10.561 3.003 14.119-1.234l2.649-3.155-20.279-17.102z" fill="#cc4040"/></g><g><path d="m36.445 240.979-4.973-4.17c-4.24-3.555-4.793-9.873-1.235-14.11l22.037-26.247c3.558-4.237 9.879-4.79 14.119-1.234l4.973 4.17c4.24 3.555 4.793 9.873 1.235 14.11l-22.037 26.247c-3.558 4.236-9.879 4.789-14.119 1.234z" fill="#ed4848"/><path d="m30.237 222.698c-3.558 4.237-3.005 10.555 1.235 14.11l4.973 4.17c4.24 3.555 10.561 3.003 14.119-1.234l2.649-3.155-20.279-17.102z" fill="#cc4040"/></g><g><path d="m92.263 271.155-17.666-14.815c-4.24-3.555-4.793-9.873-1.235-14.11l11.749-13.993 33.02 27.69-11.749 13.993c-3.558 4.238-9.879 4.79-14.119 1.235z" fill="#fdd2b5"/><path d="m86.597 266.34c-4.24-3.556-4.793-9.873-1.235-14.11l11.718-13.956-11.969-10.037-11.749 13.993c-3.558 4.237-3.005 10.554 1.235 14.11l17.666 14.815c.248.208.504.399.765.579z" fill="#f9b995"/></g></g><g><g><path d="m350.033 309.979 4.973-4.17c4.24-3.556 4.793-9.873 1.235-14.11l-22.037-26.247c-3.558-4.237-9.879-4.79-14.119-1.234l-4.973 4.17c-4.24 3.555-4.793 9.873-1.235 14.11l22.037 26.247c3.558 4.236 9.879 4.789 14.119 1.234z" fill="#ed4848"/><path d="m356.241 291.698c3.558 4.237 3.005 10.555-1.235 14.11l-4.973 4.17c-4.24 3.555-10.561 3.003-14.119-1.234l-2.649-3.155 20.279-17.102z" fill="#cc4040"/></g><g><path d="m433.033 240.979 4.973-4.17c4.24-3.555 4.793-9.873 1.235-14.11l-22.037-26.247c-3.558-4.237-9.879-4.79-14.119-1.234l-4.973 4.17c-4.24 3.555-4.793 9.873-1.235 14.11l22.037 26.247c3.558 4.236 9.879 4.789 14.119 1.234z" fill="#ed4848"/><path d="m439.241 222.698c3.558 4.237 3.005 10.555-1.235 14.11l-4.973 4.17c-4.24 3.555-10.561 3.003-14.119-1.234l-2.649-3.155 20.279-17.102z" fill="#cc4040"/></g><g><path d="m377.209 271.155 17.666-14.815c4.24-3.555 4.793-9.873 1.235-14.11l-11.749-13.993-33.02 27.69 11.749 13.993c3.558 4.238 9.879 4.79 14.119 1.235z" fill="#fdd2b5"/><path d="m396.11 242.23-11.749-13.993-11.476 9.624 11.225 13.369c3.558 4.237 3.005 10.554-1.235 14.11l-9.221 7.733c1.266-.38 2.478-1.015 3.555-1.918l17.666-14.815c4.24-3.555 4.792-9.873 1.235-14.11z" fill="#f9b995"/></g></g><g><g><path d="m277.021 124.881-19.645-.021v-34.458h-43.392v34.425l-22.402-.026c-7.994-.009-15.619 3.361-20.991 9.278l-85.48 94.157 33.02 27.69 61.758-69.927.132 80.509h109.62l-.07-80.525 61.771 69.942 33.02-27.69-86.523-94.2c-5.353-5.825-12.903-9.146-20.818-9.154z" fill="#4ac8f4"/><g fill="#17bae5"><path d="m248.375 102.402v34.458l19.645.021c7.915.008 15.465 3.329 20.817 9.157l84.213 91.684 11.31-9.485-86.523-94.2c-5.353-5.827-12.902-9.148-20.817-9.157l-19.645-.021v-34.457h-43.392v12z"/><path d="m180.59 147.08c5.372-5.917 12.997-9.287 20.991-9.278l22.402.026v-34.426h33.392v-13h-43.392v34.426l-22.402-.026c-7.994-.009-15.619 3.361-20.991 9.278l-85.48 94.157 12.378 10.38z"/></g></g><g><path d="m257.557 124.86h-.182v-34.458h-43.392v33.88c10.108 16.315 33.52 16.067 43.574.578z" fill="#fdd2b5"/><path d="m227.983 119.282v-28.88h-14v33.88c8.377 13.521 25.884 15.656 37.36 7.178-8.877.477-17.993-3.516-23.36-12.178z" fill="#f9b995"/></g></g><g><g><ellipse cx="234.736" cy="63.335" fill="#fdd2b5" rx="44.276" ry="47.24"/><path d="m208.46 63.335c0-22.799 15.139-41.824 35.276-46.261-2.906-.64-5.916-.979-9-.979-24.453 0-44.276 21.15-44.276 47.24s19.823 47.24 44.276 47.24c3.084 0 6.094-.338 9-.979-20.137-4.436-35.276-23.461-35.276-46.261z" fill="#f9b995"/></g><g><path d="m194.812 57.326-4.394 8.11v-21.332c0-30.361 33.166-49.104 59.216-33.464 17.095 3.363 29.42 18.337 29.42 35.743v18.687l-3.362-1.631c-13.639-6.615-24.368-17.995-30.151-31.98l-5.003 5.983c-5.26 6.291-13.459 9.344-21.565 8.03-9.762-1.583-19.458 3.175-24.161 11.854z" fill="#616161"/><g><path d="m208.418 44.104c0-19.403 13.551-34.042 30.127-38.013-23.486-5.674-48.127 11.843-48.127 38.013v21.332l4.394-8.11c2.963-5.469 7.91-9.375 13.606-11.125z" fill="#4c4c4c"/></g></g></g></g></g><g><g><path d="m184.987 463h-150.252l-19.174-114.481h188.599z" fill="#5c6bc0"/><path d="m52.101 366.519h149.044l3.015-18h-188.598l19.173 114.481h16.985l-13.427-80.168c-1.429-8.537 5.153-16.313 13.808-16.313z" fill="#5060a3"/></g><path d="m121.14 411.261h-22.558c-2.762 0-5-2.238-5-5s2.238-5 5-5h22.558c2.762 0 5 2.238 5 5s-2.239 5-5 5z" fill="#333"/></g><g><circle cx="394.634" cy="394.465" fill="#eee" r="68.5"/><g fill="#333"><ellipse cx="366.091" cy="332.25" rx="6.998" ry="6.998" transform="matrix(.906 -.423 .423 .906 -106.115 185.846)"/><ellipse cx="342.527" cy="350.399" rx="7" ry="7" transform="matrix(.643 -.766 .766 .643 -146.067 387.558)"/></g><g><g><ellipse cx="392.634" cy="398.374" fill="#ed4848" rx="13.821" ry="13.872" transform="matrix(.927 -.375 .375 .927 -120.68 176.177)"/><path d="m391.82 403.553c-2.752-6.815.286-14.513 6.786-17.655-3.386-1.635-7.412-1.905-11.166-.387-7.077 2.861-10.488 10.938-7.62 18.042 2.869 7.104 10.931 10.543 18.008 7.683.288-.116.559-.254.834-.387-2.997-1.447-5.495-3.961-6.842-7.296z" fill="#cc4040"/></g></g></g><g fill="#fff"><ellipse cx="165.225" cy="402.262" rx="10.875" ry="17.024"/><path d="m142.622 438.792c.298 6.155-2.825 10.99-6.977 10.8s-7.759-5.333-8.057-11.488 2.825-10.99 6.977-10.8c4.152.189 7.759 5.333 8.057 11.488z"/></g><g fill="#333"><path d="m463 458.001h-31.734c21.842-12.762 36.557-36.448 36.557-63.526 0-40.557-32.986-73.552-73.531-73.552-2.762 0-5 2.238-5 5s2.238 5 5 5c35.031 0 63.531 28.51 63.531 63.553.07 35.45-29.355 64.214-64.646 63.526-34.516-.6-62.415-28.856-62.415-63.526 0-1.617.083-3.226.205-4.829l2.955 6.141c.861 1.789 2.648 2.833 4.51 2.833 3.575.077 6.146-3.958 4.502-7.168l-9.545-19.838c-1.422-3.192-6.103-3.81-8.298-1.091l-15.587 18.137c-1.8 2.094-1.562 5.25.533 7.05 2.092 1.801 5.251 1.561 7.051-.533l3.77-4.386c-.061 1.225-.096 2.453-.096 3.684 0 27.078 14.714 50.764 36.556 63.526h-62.654l-.079-258.744 58.367 66.396-7.11 5.922-7.816-9.307c-5.323-6.34-14.815-7.17-21.16-1.85l-4.972 4.169c-6.295 5.059-7.172 15.079-1.853 21.154l22.037 26.243c5.345 6.365 14.85 7.151 21.161 1.85l4.973-4.17c6.293-5.059 7.171-15.078 1.852-21.153l-7.791-9.278 7.118-5.929c5.367 6.238 14.772 6.969 21.031 1.712l17.666-14.812c6.211-4.993 7.161-14.839 2.025-20.925l7.109-5.944 7.709 9.181c5.344 6.361 14.848 7.149 21.159 1.85 0-.001.001-.001.001-.001l4.973-4.17c6.293-5.059 7.172-15.078 1.852-21.153l-22.037-26.243c-5.324-6.34-14.817-7.171-21.159-1.85l-4.975 4.17c-6.294 5.057-7.171 15.079-1.852 21.152l7.898 9.406-7.098 5.935-92.173-100.907c-6.28-6.835-15.208-10.762-24.495-10.772l-14.65-.016v-13.207c12.336-8.828 20.643-23.449 21.527-40.369.098-.392.152-19.895.152-19.895 0-19.445-13.656-36.323-32.597-40.465-27.872-17.331-67.186 5.335-66.039 38.187 0 0 .071 22.169.174 22.569 1.044 17.575 10.132 32.642 23.391 41.235v11.901l-17.396-.02h-.037c-9.373 0-18.361 3.977-24.662 10.915l-91.032 101.247-7.155-6.365 7.877-9.38c5.319-6.075 4.443-16.096-1.853-21.153l-4.973-4.17c-6.343-5.319-15.836-4.492-21.16 1.85l-22.037 26.243c-5.32 6.076-4.441 16.094 1.852 21.153l4.973 4.17s.001 0 .001.001c6.311 5.298 15.815 4.511 21.159-1.851l7.728-9.203 6.936 6.17c-4.97 6.094-3.956 15.787 2.18 20.721l17.666 14.812c6.271 5.268 15.701 4.522 21.063-1.746l7.097 5.95-7.802 9.291c-5.32 6.076-4.442 16.095 1.853 21.153l4.974 4.17c6.309 5.301 15.815 4.514 21.159-1.85l22.037-26.243c5.32-6.074 4.442-16.096-1.852-21.153l-4.973-4.17c-6.345-5.319-15.836-4.49-21.16 1.85l-7.805 9.295-6.937-5.816 58.158-66.46-.07 144.251h-159.23c-3.001-.071-5.497 2.878-4.932 5.826l18.197 108.638h-23.827c-2.762 0-5 2.238-5 5s2.238 5 5 5h458c2.762 0 5-2.238 5-5s-2.238-4.999-5-4.999zm-110.594-163.062c3.114 3.264.407 6.202-.619 7.063l-4.973 4.169c-2.121 1.778-5.296 1.503-7.077-.618l-22.037-26.243c-1.776-2.03-1.484-5.372.619-7.063l4.973-4.169c2.11-1.772 5.289-1.508 7.076.618zm48.146-85.099c-1.777-2.028-1.481-5.371.618-7.061l4.975-4.17c2.11-1.773 5.289-1.51 7.076.618l22.037 26.243c1.776 2.03 1.483 5.373-.619 7.063l-4.973 4.17c-2.122 1.777-5.296 1.5-7.076-.618zm-353.67 26.244c-1.78 2.121-4.954 2.396-7.076.619l-4.973-4.17c-2.102-1.69-2.395-5.033-.619-7.063l22.037-26.243c1.78-2.12 4.952-2.396 7.077-.618l4.973 4.17c2.101 1.69 2.396 5.032.619 7.062zm92.222 32.612c1.787-2.128 4.966-2.389 7.076-.618l4.974 4.17c2.102 1.69 2.394 5.033.618 7.062l-22.037 26.243c-1.78 2.12-4.954 2.398-7.076.618 0 0 0 0-.001 0l-4.973-4.169c-2.101-1.69-2.396-5.034-.619-7.063zm253.177-23.218c1.777 2.029 1.482 5.373-.619 7.063l-17.666 14.812c-2.122 1.778-5.297 1.501-7.077-.618l-8.531-10.16 25.357-21.261zm-196.863-201.311c-.887-25.69 30.09-43.157 51.643-29.173.496.298 1.04.507 1.608.619 14.709 2.893 25.385 15.86 25.385 30.832v10.521c-10.726-6.245-19.124-15.824-23.893-27.353-1.292-3.404-6.193-4.165-8.456-1.296l-5.003 5.983c-4.108 4.912-10.595 7.327-16.929 6.3-9.038-1.463-18.056 1.558-24.355 7.756zm.164 22.293 3.627-6.693c3.686-6.802 11.302-10.539 18.965-9.298 9.8 1.589 19.839-2.151 26.2-9.757l.052-.063c6.642 11.811 16.751 21.366 29.084 27.346l.238.115c-2.173 21.278-18.765 37.516-39.011 37.516-20.73.002-37.691-17.099-39.155-39.166zm56.793 45.744v11.549c-3.051 5.927-8.775 9.665-15.512 10.055-7.595.507-14.375-3.62-17.881-10.316v-10.583c10.425 3.843 23.185 3.552 33.393-.705zm-149.822 154.531c-1.78 2.121-4.955 2.396-7.077.618l-17.666-14.812c-2.101-1.69-2.396-5.033-.619-7.063l8.536-10.164 25.357 21.261zm-63.586 191.266-17.498-104.465h176.784l-17.498 104.465zm175.406 0h-23.478l2.709-16.171.064-.385h20.705zm-19.03-26.555 13.749-82.083c.565-2.948-1.931-5.897-4.932-5.826h-19.37v-71.998h44.915v43.711l-14.738 116.195h-19.624zm49.695 26.555h-20.665v-21.243l10.333-81.463 10.333 81.463v21.243zm39.627 0h-29.627v-16.556h29.627zm0-26.555h-30.221l-14.738-116.195v-43.711h44.959zm-.095-245.414.086 75.508h-99.926l.158-75.488c.159-4.475-5.898-6.772-8.747-3.32l-58.532 66.264-25.301-21.213 81.982-90.294c4.409-4.855 10.698-7.638 17.259-7.638h.025l19.573.022.02.032c5.22 8.7 14.529 13.933 24.591 13.933 10.124.028 19.516-5.357 24.615-13.926l16.641.017c6.499.007 12.747 2.755 17.141 7.538l82.985 90.334-25.277 21.194-58.545-66.279c-2.848-3.451-8.901-1.156-8.748 3.316z"/><path d="m392.96 380.196c-.72 0-1.428.051-2.127.13l-8.487-20.765c-1.043-2.556-3.962-3.782-6.52-2.736-2.556 1.044-3.781 3.963-2.736 6.519l8.484 20.757c-4.426 3.419-7.293 8.761-7.293 14.773 0 10.299 8.38 18.678 18.68 18.678s18.68-8.379 18.68-18.678-8.381-18.678-18.681-18.678zm0 27.357c-4.786 0-8.68-3.893-8.68-8.679s3.894-8.679 8.68-8.679 8.68 3.893 8.68 8.679-3.894 8.679-8.68 8.679z"/></g></g></svg>